# xmcd
#
# Track frame offsets: 
#        150
#        21899
#        41875
#        49574
#        67315
#        86010
#        105863
#        122229
#
# Disc length: 1698 seconds
#
# Revision: 1
# Processed by: cddbd v1.4PL0 Copyright (c) Steve Scherf et al.
# Submitted via: ExactAudioCopy v0.95a3
#
DISCID=6906a008
DTITLE=McNally, Shannon and Neal Casal - Ran on Pure Lightning
DYEAR=2002
DGENRE=Alt Country
TTITLE0=Pale Moon
TTITLE1=Fierce Little Bird
TTITLE2=Sunset Flood
TTITLE3=John Finch
TTITLE4=Swing Me Easy
TTITLE5=In My Mind
TTITLE6=Brings Me Back to You
TTITLE7=Benmont's Boogy
EXTD=
EXTT0=
EXTT1=
EXTT2=
EXTT3=
EXTT4=
EXTT5=
EXTT6=
EXTT7=
PLAYORDER=
